<?xml version="1.0" encoding="UTF-8"?>
<svg viewBox="0 0 300 300" xmlns="http://www.w3.org/2000/svg">
 <path d="m189.93 15.916c5.399-3.292 12.186-2.524 18.071-1.151 7.356 2.396 15.257 6.083 18.771 13.437 2.636 4.643 0.851 10.212-1.134 14.75 4.475 3.324 8.911 6.699 13.329 10.099 1.487 1.061 3.009 2.424 4.976 2.298 18.685 0.084 37.373 0.004002 56.061 0.032001v6c-16.753-0.025002-33.506 0.049-50.258-0.036999 5.754 4.367 12.15 8.119 16.982 13.55-0.707 1.172-0.88901 3.036-2.537 3.288-2.332 0.442-4.052-1.546-5.885-2.617-3.963 9.856-10.403 18.457-16.984 26.7-10.602 13.57-26.53 23.261-43.703 25.35-7.863-0.131-17.624 1.645-23.443-5.03-0.44501-3.461 1.252-6.572 4.417-8.047 14.288-7.171 31.2-6.125 45.473-13.387 10.088-4.628 17.567-13.077 25.521-20.536 2.329-2.092 4.379-4.465 6.354-6.89-4.857-3.737-9.724-7.465-14.65-11.109-2.018-1.778-4.85-1.127-7.292-1.261-78 0.059002-156 0.008999-234 0.025002v-6c77.301 0.018997 154.6-0.039001 231.9 0.028-3.344-2.43-6.631-4.935-9.941-7.407-3.801 2.679-8.101 5.052-12.91 4.84-5.371 0.46-10.036-2.712-13.945-6-5.52-5.085-9.702-12.122-9.758-19.8 0.06601-4.051 0.85001-8.787 4.579-11.125z" fill="none" stroke="#000" stroke-miterlimit="10" stroke-width=".1"/>
 <path d="m189.93 15.916c5.399-3.292 12.186-2.524 18.071-1.151 7.356 2.396 15.257 6.083 18.771 13.437 2.636 4.643 0.851 10.212-1.134 14.75 4.475 3.324 8.911 6.699 13.329 10.099 1.487 1.061 3.009 2.424 4.976 2.298 18.685 0.084 37.373 0.004002 56.061 0.032001v6c-16.753-0.025002-33.506 0.049-50.258-0.036999 5.754 4.367 12.15 8.119 16.982 13.55-0.707 1.172-0.88901 3.036-2.537 3.288-2.332 0.442-4.052-1.546-5.885-2.617-3.963 9.856-10.403 18.457-16.984 26.7-10.602 13.57-26.53 23.261-43.703 25.35-7.863-0.131-17.624 1.645-23.443-5.03-0.44501-3.461 1.252-6.572 4.417-8.047 14.288-7.171 31.2-6.125 45.473-13.387 10.088-4.628 17.567-13.077 25.521-20.536 2.329-2.092 4.379-4.465 6.354-6.89-4.857-3.737-9.724-7.465-14.65-11.109-2.018-1.778-4.85-1.127-7.292-1.261-78 0.059002-156 0.008999-234 0.025002v-6c77.301 0.018997 154.6-0.039001 231.9 0.028-3.344-2.43-6.631-4.935-9.941-7.407-3.801 2.679-8.101 5.052-12.91 4.84-5.371 0.46-10.036-2.712-13.945-6-5.52-5.085-9.702-12.122-9.758-19.8 0.06601-4.051 0.85001-8.787 4.579-11.125z"/>
 <path d="m194.44 20.589c6.369-2.222 13.296 0.106 19.02 3.077 3.757 2.279 8.547 5.237 8.357 10.256-0.19101 6.009-4.867 11.74-10.925 12.586-5.239 1.106-10.064-2.324-13.371-6.032-3.313-4.02-6.622-8.931-5.919-14.401 0.23799-2.058 0.293-4.947 2.838-5.486z" fill="none" stroke="#fff" stroke-miterlimit="10" stroke-width=".1"/>
 <path d="m194.44 20.589c6.369-2.222 13.296 0.106 19.02 3.077 3.757 2.279 8.547 5.237 8.357 10.256-0.19101 6.009-4.867 11.74-10.925 12.586-5.239 1.106-10.064-2.324-13.371-6.032-3.313-4.02-6.622-8.931-5.919-14.401 0.23799-2.058 0.293-4.947 2.838-5.486z" fill="#fff"/>
 <path d="m155.6 63.919c7.322-0.864 15.021 1.995 19.945 7.495 3.173 3.835 5.218 8.599 5.602 13.581-0.252 8.857-6.031 17.5-14.533 20.405-10.038 4.011-22.896-0.145-27.999-9.846-3.705-6.051-3.804-14.06-0.121-20.148 3.266-6.461 10.092-10.453 17.106-11.487z" fill="none" stroke="#000" stroke-miterlimit="10" stroke-width=".1"/>
 <path d="m155.6 63.919c7.322-0.864 15.021 1.995 19.945 7.495 3.173 3.835 5.218 8.599 5.602 13.581-0.252 8.857-6.031 17.5-14.533 20.405-10.038 4.011-22.896-0.145-27.999-9.846-3.705-6.051-3.804-14.06-0.121-20.148 3.266-6.461 10.092-10.453 17.106-11.487z" fill="#f00"/>
 <path d="m55.353 110.28c14.666-9.292 32.164-15.968 49.77-13.424 7.073 0.635 13.714 3.601 19.538 7.549 3.272 2.874 4.061 8.76 0.621 11.811-1.844 2.128-4.879 1.437-7.344 1.403-11.832-1.902-23.955-3.611-35.901-1.667-6.068 0.67-11.956 2.351-17.753 4.204-10.955 3.875-20.754 10.239-31.045 15.516-0.161-1.771 1.117-3.146 1.937-4.572 5.226-8.189 11.817-15.726 20.177-20.82z" fill="none" stroke="#000" stroke-miterlimit="10" stroke-width=".1"/>
 <path d="m55.353 110.28c14.666-9.292 32.164-15.968 49.77-13.424 7.073 0.635 13.714 3.601 19.538 7.549 3.272 2.874 4.061 8.76 0.621 11.811-1.844 2.128-4.879 1.437-7.344 1.403-11.832-1.902-23.955-3.611-35.901-1.667-6.068 0.67-11.956 2.351-17.753 4.204-10.955 3.875-20.754 10.239-31.045 15.516-0.161-1.771 1.117-3.146 1.937-4.572 5.226-8.189 11.817-15.726 20.177-20.82z" fill="#f00"/>
 <path d="m0 160.38c100-9.92e-4 200 0 300 0v6c-100-9.92e-4 -200 0-300 0v-6z" fill="none" stroke="#000" stroke-miterlimit="10" stroke-width=".1"/>
 <path d="m0 160.38c100-9.92e-4 200 0 300 0v6c-100-9.92e-4 -200 0-300 0v-6z" fill="#f00"/>
 <path d="m107.61 176.77c2.205-5.334 8.722-6.051 13.572-4.278 1.385 1.733 2.789 3.464 3.921 5.382 1.141 2.149 3.633 3.364 4.085 5.908 4.498 14.796 10.05 29.676 10.252 45.322-0.024994 6.278-1.57 13.508-7.073 17.289-6.625 5.143-13.401 10.191-20.82 14.141-17.865 8.446-35.068 18.398-53.586 25.385 0.878-3.147 4.307-4.459 6.472-6.615 12.508-9.652 23.222-21.305 34.658-32.145 6.048-6.229 13.686-10.516 20.753-15.441-3.945-9.859-8.01-19.695-11.256-29.811-1.921-8.116-4.111-17.057-0.978-25.137z" fill="none" stroke="#000" stroke-miterlimit="10" stroke-width=".1"/>
 <path d="m107.61 176.77c2.205-5.334 8.722-6.051 13.572-4.278 1.385 1.733 2.789 3.464 3.921 5.382 1.141 2.149 3.633 3.364 4.085 5.908 4.498 14.796 10.05 29.676 10.252 45.322-0.024994 6.278-1.57 13.508-7.073 17.289-6.625 5.143-13.401 10.191-20.82 14.141-17.865 8.446-35.068 18.398-53.586 25.385 0.878-3.147 4.307-4.459 6.472-6.615 12.508-9.652 23.222-21.305 34.658-32.145 6.048-6.229 13.686-10.516 20.753-15.441-3.945-9.859-8.01-19.695-11.256-29.811-1.921-8.116-4.111-17.057-0.978-25.137z"/>
 <path d="m139.64 174.68c3.769-2.801 8.995-2.263 13.125-0.58 12.291 4.173 21.117 14.4 28.918 24.28 17.582 23.43 35.014 46.971 52.549 70.436 4.566 6.023 10.396 10.973 15.008 16.936-4.491 0.547-7.906-3.262-11.461-5.418-13.221-9.422-26.661-18.619-38.855-29.371-14.768-12.441-28.523-26.02-42.115-39.717-7.725-7.783-15.2-16.421-18.398-27.133-0.754-3.079-1.189-6.974 1.229-9.433z" fill="none" stroke="#000" stroke-miterlimit="10" stroke-width=".1"/>
 <path d="m139.64 174.68c3.769-2.801 8.995-2.263 13.125-0.58 12.291 4.173 21.117 14.4 28.918 24.28 17.582 23.43 35.014 46.971 52.549 70.436 4.566 6.023 10.396 10.973 15.008 16.936-4.491 0.547-7.906-3.262-11.461-5.418-13.221-9.422-26.661-18.619-38.855-29.371-14.768-12.441-28.523-26.02-42.115-39.717-7.725-7.783-15.2-16.421-18.398-27.133-0.754-3.079-1.189-6.974 1.229-9.433z" fill="#f00"/>
</svg>
